<svg width="53" height="53" viewBox="0 0 53 53" fill="none" xmlns="http://www.w3.org/2000/svg">
<rect y="0.5" width="52.4921" height="52.4921" rx="26.246" fill="#333333"/>
<path d="M18.476 26.7459C18.476 22.4657 21.9657 18.976 26.2459 18.976C30.5261 18.976 34.0158 22.4657 34.0158 26.7459C34.0158 31.0261 30.5261 34.5158 26.2459 34.5158C21.9657 34.5158 18.476 31.0261 18.476 26.7459ZM27.6547 30.1612V28.1547H29.6612C30.4357 28.1547 31.0701 27.5204 31.0701 26.7459C31.0701 25.9714 30.4357 25.3371 29.6612 25.3371H27.6547V23.3305C27.6547 22.5561 27.0204 21.9217 26.2459 21.9217C25.4714 21.9217 24.8371 22.5561 24.8371 23.3305V25.3371H22.8305C22.0561 25.3371 21.4217 25.9714 21.4217 26.7459C21.4217 27.5204 22.0561 28.1547 22.8305 28.1547H24.8371V30.1612C24.8371 30.9357 25.4714 31.5701 26.2459 31.5701C27.0204 31.5701 27.6547 30.9357 27.6547 30.1612Z" fill="#EDF6F5" stroke="#EDF6F5" stroke-width="1.53691"/>
</svg>
