<svg width="58" height="30" viewBox="0 0 58 30" fill="none" xmlns="http://www.w3.org/2000/svg">
<g id="Group 1">
<g id="Be">
<path id="Vector" d="M23.5643 8.78991C23.5643 9.20065 23.5378 9.57164 23.4848 9.90289H15.1176C15.1839 10.7774 15.5085 11.4796 16.0915 12.0096C16.6745 12.5396 17.39 12.8046 18.2379 12.8046C19.4569 12.8046 20.3181 12.2944 20.8216 11.2742H23.2662C22.9349 12.2812 22.3321 13.1093 21.4576 13.7585C20.5964 14.3945 19.5232 14.7125 18.2379 14.7125C17.1912 14.7125 16.2505 14.4806 15.4158 14.0169C14.5943 13.5399 13.9451 12.8774 13.4681 12.0295C13.0043 11.1682 12.7725 10.1745 12.7725 9.04828C12.7725 7.92206 12.9977 6.93496 13.4482 6.08699C13.9119 5.22576 14.5545 4.56328 15.376 4.09954C16.2107 3.6358 17.1647 3.40393 18.2379 3.40393C19.2714 3.40393 20.1923 3.62917 21.0005 4.07966C21.8087 4.53015 22.4381 5.16613 22.8886 5.98761C23.3391 6.79584 23.5643 7.72994 23.5643 8.78991ZM21.1992 8.07443C21.186 7.2397 20.8879 6.5706 20.3049 6.06711C19.7219 5.56362 18.9998 5.31188 18.1386 5.31188C17.3568 5.31188 16.6877 5.56362 16.1312 6.06711C15.5748 6.55735 15.2435 7.22645 15.1375 8.07443H21.1992Z" fill="#333333"/>
<path id="Vector_2" d="M9.59497 7.4384C10.3369 7.5709 10.9663 7.96176 11.483 8.61099C11.9998 9.26023 12.2581 9.99558 12.2581 10.8171C12.2581 11.5193 12.0727 12.1553 11.7017 12.725C11.3439 13.2815 10.8206 13.7254 10.1316 14.0566C9.4426 14.3746 8.64099 14.5336 7.72677 14.5336H2.20166V0.720825H7.4684C8.40912 0.720825 9.21735 0.879821 9.89309 1.19781C10.5688 1.51581 11.0789 1.94642 11.4234 2.48965C11.7679 3.01964 11.9402 3.61588 11.9402 4.27836C11.9402 5.07334 11.7282 5.73582 11.3042 6.26581C10.8802 6.79579 10.3104 7.18666 9.59497 7.4384ZM4.46735 6.52417H7.26965C8.01163 6.52417 8.58799 6.35855 8.99873 6.02731C9.42272 5.68282 9.63472 5.19258 9.63472 4.5566C9.63472 3.93387 9.42272 3.45025 8.99873 3.10576C8.58799 2.74802 8.01163 2.56915 7.26965 2.56915H4.46735V6.52417ZM7.52802 12.6853C8.2965 12.6853 8.89936 12.4998 9.3366 12.1288C9.77384 11.7578 9.99246 11.2411 9.99246 10.5786C9.99246 9.90284 9.76059 9.36623 9.29685 8.96874C8.83311 8.57125 8.217 8.3725 7.44852 8.3725H4.46735V12.6853H7.52802Z" fill="#333333"/>
</g>
<g id="Our">
<path id="Vector_3" d="M54.4049 5.27212C54.7361 4.71564 55.1733 4.28503 55.7166 3.98028C56.2731 3.66229 56.9289 3.5033 57.6841 3.5033V5.84848H57.1078C56.2201 5.84848 55.5443 6.07373 55.0806 6.52422C54.6301 6.9747 54.4049 7.75643 54.4049 8.86941V14.633H52.1392V3.68217H54.4049V5.27212Z" fill="#333333"/>
<path id="Vector_4" d="M50.3419 3.68213V14.633H48.0762V13.3411C47.7185 13.7916 47.2481 14.1494 46.6652 14.4143C46.0954 14.6661 45.4859 14.792 44.8367 14.792C43.9755 14.792 43.2004 14.6131 42.5114 14.2554C41.8357 13.8976 41.299 13.3676 40.9016 12.6654C40.5173 11.9632 40.3252 11.1152 40.3252 10.1215V3.68213H42.571V9.78359C42.571 10.7641 42.8161 11.5193 43.3064 12.0493C43.7966 12.566 44.4657 12.8244 45.3137 12.8244C46.1617 12.8244 46.8308 12.566 47.321 12.0493C47.8245 11.5193 48.0762 10.7641 48.0762 9.78359V3.68213H50.3419Z" fill="#333333"/>
<path id="Vector_5" d="M32.3323 14.7721C31.0471 14.7721 29.8612 14.474 28.7748 13.8778C27.7015 13.2683 26.8469 12.4269 26.211 11.3537C25.5882 10.2672 25.2769 9.04826 25.2769 7.6968C25.2769 6.34533 25.5882 5.13299 26.211 4.05977C26.8469 2.98655 27.7015 2.15182 28.7748 1.55558C29.8612 0.9461 31.0471 0.641357 32.3323 0.641357C33.6308 0.641357 34.8166 0.9461 35.8898 1.55558C36.9763 2.15182 37.8309 2.98655 38.4536 4.05977C39.0764 5.13299 39.3877 6.34533 39.3877 7.6968C39.3877 9.04826 39.0764 10.2672 38.4536 11.3537C37.8309 12.4269 36.9763 13.2683 35.8898 13.8778C34.8166 14.474 33.6308 14.7721 32.3323 14.7721ZM32.3323 12.8045C33.2465 12.8045 34.0614 12.5992 34.7769 12.1884C35.4923 11.7644 36.0488 11.1682 36.4463 10.3997C36.8571 9.618 37.0624 8.71702 37.0624 7.6968C37.0624 6.67658 36.8571 5.78222 36.4463 5.01374C36.0488 4.24526 35.4923 3.65565 34.7769 3.24492C34.0614 2.83418 33.2465 2.62881 32.3323 2.62881C31.4181 2.62881 30.6032 2.83418 29.8877 3.24492C29.1723 3.65565 28.6091 4.24526 28.1984 5.01374C27.8009 5.78222 27.6022 6.67658 27.6022 7.6968C27.6022 8.71702 27.8009 9.618 28.1984 10.3997C28.6091 11.1682 29.1723 11.7644 29.8877 12.1884C30.6032 12.5992 31.4181 12.8045 32.3323 12.8045Z" fill="#333333"/>
</g>
<g id="Guest">
<path id="Vector_6" d="M50.3718 19.9409V26.0026C50.3718 26.4133 50.4646 26.7115 50.6501 26.897C50.8488 27.0692 51.1801 27.1553 51.6438 27.1553H53.035V29.0434H51.2463C50.2261 29.0434 49.4444 28.8049 48.9011 28.3279C48.3579 27.8509 48.0863 27.0758 48.0863 26.0026V19.9409H46.7944V18.0926H48.0863V15.3698H50.3718V18.0926H53.035V19.9409H50.3718Z" fill="#076974"/>
<path id="Vector_7" d="M42.2796 29.2223C41.4184 29.2223 40.6433 29.0699 39.9543 28.7652C39.2786 28.4472 38.742 28.0232 38.3445 27.4932C37.947 26.95 37.735 26.3471 37.7085 25.6846H40.0537C40.0934 26.1484 40.3121 26.5392 40.7095 26.8572C41.1203 27.162 41.6304 27.3143 42.2399 27.3143C42.8759 27.3143 43.3661 27.1951 43.7106 26.9566C44.0683 26.7048 44.2472 26.3868 44.2472 26.0026C44.2472 25.5919 44.0485 25.2871 43.651 25.0884C43.2667 24.8896 42.6506 24.671 41.8026 24.4325C40.9812 24.2073 40.3121 23.9887 39.7953 23.7767C39.2786 23.5647 38.8281 23.2401 38.4439 22.8028C38.0729 22.3656 37.8874 21.7892 37.8874 21.0737C37.8874 20.4908 38.0596 19.9608 38.4041 19.4838C38.7486 18.9935 39.2388 18.6093 39.8748 18.3311C40.524 18.0528 41.266 17.9137 42.1008 17.9137C43.3462 17.9137 44.3466 18.2317 45.1018 18.8677C45.8703 19.4904 46.281 20.345 46.334 21.4315H44.0683C44.0286 20.9412 43.8298 20.5504 43.4721 20.2589C43.1144 19.9674 42.6307 19.8216 42.0213 19.8216C41.425 19.8216 40.9679 19.9343 40.6499 20.1595C40.3319 20.3848 40.1729 20.6829 40.1729 21.0539C40.1729 21.3454 40.2789 21.5905 40.4909 21.7892C40.7029 21.988 40.9613 22.147 41.266 22.2662C41.5708 22.3722 42.0213 22.5113 42.6175 22.6836C43.4125 22.8956 44.0617 23.1142 44.5652 23.3394C45.0819 23.5514 45.5258 23.8694 45.8968 24.2934C46.2678 24.7174 46.4599 25.2805 46.4731 25.9827C46.4731 26.6055 46.3009 27.162 45.9564 27.6522C45.6119 28.1424 45.1217 28.5267 44.4857 28.8049C43.863 29.0832 43.1276 29.2223 42.2796 29.2223Z" fill="#076974"/>
<path id="Vector_8" d="M37.2674 23.2997C37.2674 23.7104 37.2409 24.0814 37.1879 24.4127H28.8208C28.887 25.2871 29.2116 25.9894 29.7946 26.5193C30.3776 27.0493 31.0931 27.3143 31.9411 27.3143C33.16 27.3143 34.0213 26.8042 34.5248 25.784H36.9693C36.6381 26.791 36.0352 27.6191 35.1607 28.2683C34.2995 28.9043 33.2263 29.2223 31.9411 29.2223C30.8943 29.2223 29.9536 28.9904 29.1189 28.5267C28.2974 28.0497 27.6482 27.3872 27.1712 26.5392C26.7075 25.678 26.4756 24.6843 26.4756 23.558C26.4756 22.4318 26.7008 21.4447 27.1513 20.5968C27.6151 19.7355 28.2577 19.073 29.0791 18.6093C29.9139 18.1456 30.8678 17.9137 31.9411 17.9137C32.9745 17.9137 33.8954 18.1389 34.7036 18.5894C35.5119 19.0399 36.1412 19.6759 36.5917 20.4974C37.0422 21.3056 37.2674 22.2397 37.2674 23.2997ZM34.9024 22.5842C34.8891 21.7495 34.591 21.0804 34.008 20.5769C33.425 20.0734 32.7029 19.8216 31.8417 19.8216C31.06 19.8216 30.3909 20.0734 29.8344 20.5769C29.2779 21.0671 28.9466 21.7362 28.8406 22.5842H34.9024Z" fill="#076974"/>
<path id="Vector_9" d="M25.4337 18.0925V29.0434H23.168V27.7515C22.8103 28.202 22.3399 28.5598 21.757 28.8247C21.1872 29.0765 20.5777 29.2024 19.9285 29.2024C19.0673 29.2024 18.2922 29.0235 17.6032 28.6658C16.9275 28.308 16.3908 27.778 15.9934 27.0758C15.6091 26.3736 15.417 25.5256 15.417 24.5319V18.0925H17.6628V24.194C17.6628 25.1745 17.9079 25.9297 18.3982 26.4597C18.8884 26.9764 19.5575 27.2348 20.4055 27.2348C21.2535 27.2348 21.9226 26.9764 22.4128 26.4597C22.9163 25.9297 23.168 25.1745 23.168 24.194V18.0925H25.4337Z" fill="#076974"/>
<path id="Vector_10" d="M11.3341 19.2055C10.9764 18.5165 10.4795 17.9998 9.84354 17.6553C9.20756 17.2976 8.4722 17.1187 7.63747 17.1187C6.72325 17.1187 5.90839 17.3241 5.19291 17.7348C4.47743 18.1456 3.91432 18.7285 3.50358 19.4838C3.10609 20.239 2.90735 21.1135 2.90735 22.1072C2.90735 23.1009 3.10609 23.982 3.50358 24.7505C3.91432 25.5057 4.47743 26.0887 5.19291 26.4995C5.90839 26.9102 6.72325 27.1156 7.63747 27.1156C8.86969 27.1156 9.87004 26.7711 10.6385 26.0821C11.407 25.3931 11.8774 24.459 12.0496 23.2798H6.86237V21.4712H14.4743V23.24C14.3285 24.3133 13.9443 25.3004 13.3216 26.2013C12.7121 27.1023 11.9105 27.8244 10.9168 28.3677C9.93629 28.8976 8.84319 29.1626 7.63747 29.1626C6.33901 29.1626 5.15316 28.8645 4.07994 28.2683C3.00672 27.6588 2.15212 26.8175 1.51613 25.7442C0.893398 24.671 0.582031 23.4587 0.582031 22.1072C0.582031 20.7557 0.893398 19.5434 1.51613 18.4702C2.15212 17.3969 3.00672 16.5622 4.07994 15.966C5.16641 15.3565 6.35226 15.0518 7.63747 15.0518C9.10818 15.0518 10.4133 15.4161 11.5527 16.1449C12.7055 16.8603 13.5402 17.8806 14.0569 19.2055H11.3341Z" fill="#076974"/>
</g>
</g>
</svg>
