<svg width="42" height="22" viewBox="0 0 42 22" fill="none" xmlns="http://www.w3.org/2000/svg">
<g id="Group 1">
<g id="Be">
<path id="Vector" d="M16.7793 6.70431C16.7793 6.99758 16.7603 7.26248 16.7225 7.49899H10.7482C10.7955 8.12338 11.0273 8.62478 11.4436 9.0032C11.8598 9.38162 12.3707 9.57082 12.9762 9.57082C13.8465 9.57082 14.4615 9.2066 14.8209 8.47814H16.5664C16.3299 9.19714 15.8994 9.78841 15.275 10.252C14.6601 10.7061 13.8938 10.9331 12.9762 10.9331C12.2288 10.9331 11.5571 10.7676 10.9611 10.4365C10.3745 10.0959 9.91098 9.62286 9.5704 9.01739C9.23929 8.40246 9.07373 7.69293 9.07373 6.88879C9.07373 6.08465 9.23456 5.37985 9.55621 4.77438C9.88733 4.15945 10.3462 3.68643 10.9327 3.35532C11.5287 3.0242 12.2099 2.85864 12.9762 2.85864C13.7141 2.85864 14.3716 3.01947 14.9487 3.34112C15.5258 3.66278 15.9751 4.11688 16.2968 4.70343C16.6184 5.28051 16.7793 5.94748 16.7793 6.70431ZM15.0906 6.19345C15.0811 5.59744 14.8682 5.11969 14.452 4.76019C14.0357 4.40069 13.5201 4.22095 12.9052 4.22095C12.347 4.22095 11.8693 4.40069 11.472 4.76019C11.0746 5.11023 10.8381 5.58798 10.7624 6.19345H15.0906Z" fill="white"/>
<path id="Vector_2" d="M6.8048 5.73931C7.33459 5.83392 7.78396 6.113 8.15292 6.57656C8.52187 7.04012 8.70635 7.56518 8.70635 8.15173C8.70635 8.65313 8.57391 9.10723 8.30901 9.51403C8.05358 9.91137 7.67989 10.2283 7.18795 10.4648C6.69601 10.6919 6.12365 10.8054 5.47088 10.8054H1.52588V0.942871H5.2864C5.95809 0.942871 6.53518 1.0564 7.01766 1.28345C7.50015 1.5105 7.86437 1.81796 8.11034 2.20584C8.35632 2.58426 8.4793 3.00998 8.4793 3.483C8.4793 4.05063 8.32793 4.52365 8.0252 4.90207C7.72247 5.28048 7.31567 5.55957 6.8048 5.73931ZM3.14361 5.08654H5.1445C5.67428 5.08654 6.08581 4.96829 6.37909 4.73178C6.68182 4.48581 6.83319 4.13577 6.83319 3.68167C6.83319 3.23703 6.68182 2.89172 6.37909 2.64575C6.08581 2.39032 5.67428 2.2626 5.1445 2.2626H3.14361V5.08654ZM5.32898 9.48565C5.87768 9.48565 6.30813 9.3532 6.62033 9.08831C6.93252 8.82342 7.08862 8.45446 7.08862 7.98144C7.08862 7.49896 6.92306 7.11581 6.59194 6.832C6.26083 6.54818 5.82092 6.40628 5.27221 6.40628H3.14361V9.48565H5.32898Z" fill="white"/>
</g>
<g id="Our">
<path id="Vector_3" d="M38.7999 4.19241C39.0364 3.79507 39.3486 3.48761 39.7364 3.27002C40.1338 3.04297 40.6021 2.92944 41.1413 2.92944V4.60394H40.7298C40.0959 4.60394 39.6135 4.76477 39.2823 5.08642C38.9607 5.40808 38.7999 5.96624 38.7999 6.76092V10.8762H37.1821V3.05716H38.7999V4.19241Z" fill="white"/>
<path id="Vector_4" d="M35.8992 3.05713V10.8762H34.2814V9.95379C34.026 10.2754 33.6902 10.5309 33.2739 10.7201C32.8671 10.8998 32.4319 10.9897 31.9683 10.9897C31.3534 10.9897 30.8 10.862 30.308 10.6066C29.8256 10.3511 29.4424 9.97271 29.1586 9.47131C28.8842 8.9699 28.7471 8.36444 28.7471 7.6549V3.05713H30.3506V7.41366C30.3506 8.11373 30.5256 8.65298 30.8757 9.0314C31.2257 9.40035 31.7035 9.58483 32.3089 9.58483C32.9144 9.58483 33.3921 9.40035 33.7422 9.0314C34.1017 8.65298 34.2814 8.11373 34.2814 7.41366V3.05713H35.8992Z" fill="white"/>
<path id="Vector_5" d="M23.0396 10.9755C22.122 10.9755 21.2753 10.7627 20.4995 10.337C19.7332 9.90179 19.123 9.30105 18.6689 8.53475C18.2243 7.759 18.002 6.88864 18.002 5.92367C18.002 4.95871 18.2243 4.09308 18.6689 3.32678C19.123 2.56048 19.7332 1.96448 20.4995 1.53876C21.2753 1.10358 22.122 0.885986 23.0396 0.885986C23.9668 0.885986 24.8135 1.10358 25.5798 1.53876C26.3555 1.96448 26.9657 2.56048 27.4104 3.32678C27.855 4.09308 28.0773 4.95871 28.0773 5.92367C28.0773 6.88864 27.855 7.759 27.4104 8.53475C26.9657 9.30105 26.3555 9.90179 25.5798 10.337C24.8135 10.7627 23.9668 10.9755 23.0396 10.9755ZM23.0396 9.57067C23.6924 9.57067 24.2742 9.42403 24.7851 9.13076C25.296 8.82803 25.6933 8.40231 25.9771 7.8536C26.2704 7.29543 26.417 6.65212 26.417 5.92367C26.417 5.19522 26.2704 4.55664 25.9771 4.00793C25.6933 3.45923 25.296 3.03824 24.7851 2.74496C24.2742 2.45169 23.6924 2.30505 23.0396 2.30505C22.3869 2.30505 21.805 2.45169 21.2942 2.74496C20.7833 3.03824 20.3813 3.45923 20.088 4.00793C19.8042 4.55664 19.6623 5.19522 19.6623 5.92367C19.6623 6.65212 19.8042 7.29543 20.088 7.8536C20.3813 8.40231 20.7833 8.82803 21.2942 9.13076C21.805 9.42403 22.3869 9.57067 23.0396 9.57067Z" fill="white"/>
</g>
<g id="Guest">
<path id="Vector_6" d="M35.9205 14.6662V18.9943C35.9205 19.2876 35.9868 19.5005 36.1192 19.6329C36.2611 19.7559 36.4976 19.8174 36.8287 19.8174H37.8221V21.1655H36.5449C35.8165 21.1655 35.2583 20.9952 34.8704 20.6547C34.4825 20.3141 34.2886 19.7606 34.2886 18.9943V14.6662H33.3662V13.3465H34.2886V11.4023H35.9205V13.3465H37.8221V14.6662H35.9205Z" fill="#076974"/>
<path id="Vector_7" d="M30.1423 21.2932C29.5273 21.2932 28.9739 21.1844 28.482 20.9668C27.9995 20.7398 27.6163 20.4371 27.3325 20.0586C27.0487 19.6708 26.8973 19.2403 26.8784 18.7673H28.5529C28.5813 19.0984 28.7374 19.3775 29.0212 19.6045C29.3145 19.8221 29.6787 19.9309 30.1139 19.9309C30.568 19.9309 30.918 19.8458 31.164 19.6755C31.4194 19.4958 31.5471 19.2687 31.5471 18.9943C31.5471 18.7011 31.4052 18.4835 31.1214 18.3416C30.8471 18.1997 30.4072 18.0436 29.8017 17.8733C29.2151 17.7125 28.7374 17.5564 28.3684 17.405C27.9995 17.2536 27.6778 17.0218 27.4035 16.7097C27.1386 16.3975 27.0061 15.9859 27.0061 15.4751C27.0061 15.0588 27.1291 14.6804 27.3751 14.3398C27.6211 13.9898 27.9711 13.7154 28.4252 13.5168C28.8888 13.3181 29.4185 13.2188 30.0146 13.2188C30.9038 13.2188 31.6181 13.4458 32.1573 13.8999C32.706 14.3445 32.9993 14.9547 33.0372 15.7305H31.4194C31.391 15.3805 31.2491 15.1014 30.9937 14.8932C30.7383 14.6851 30.393 14.5811 29.9578 14.5811C29.5321 14.5811 29.2057 14.6615 28.9786 14.8223C28.7516 14.9831 28.6381 15.196 28.6381 15.4609C28.6381 15.669 28.7137 15.844 28.8651 15.9859C29.0165 16.1278 29.201 16.2414 29.4185 16.3265C29.6361 16.4022 29.9578 16.5015 30.3835 16.6245C30.9511 16.7759 31.4147 16.932 31.7742 17.0928C32.1432 17.2442 32.4601 17.4712 32.725 17.774C32.9899 18.0767 33.127 18.4788 33.1365 18.9802C33.1365 19.4248 33.0135 19.8221 32.7675 20.1722C32.5216 20.5222 32.1715 20.7966 31.7174 20.9952C31.2728 21.1939 30.7477 21.2932 30.1423 21.2932Z" fill="#076974"/>
<path id="Vector_8" d="M26.5634 17.0644C26.5634 17.3577 26.5445 17.6226 26.5067 17.8591H20.5324C20.5797 18.4835 20.8115 18.9849 21.2278 19.3633C21.644 19.7417 22.1549 19.9309 22.7603 19.9309C23.6307 19.9309 24.2456 19.5667 24.6051 18.8383H26.3506C26.1141 19.5572 25.6836 20.1485 25.0592 20.6121C24.4443 21.0662 23.678 21.2932 22.7603 21.2932C22.013 21.2932 21.3413 21.1277 20.7453 20.7966C20.1587 20.456 19.6952 19.983 19.3546 19.3775C19.0235 18.7626 18.8579 18.053 18.8579 17.2489C18.8579 16.4448 19.0187 15.74 19.3404 15.1345C19.6715 14.5196 20.1303 14.0465 20.7169 13.7154C21.3129 13.3843 21.994 13.2188 22.7603 13.2188C23.4983 13.2188 24.1558 13.3796 24.7328 13.7012C25.3099 14.0229 25.7593 14.477 26.081 15.0635C26.4026 15.6406 26.5634 16.3076 26.5634 17.0644ZM24.8747 16.5536C24.8653 15.9575 24.6524 15.4798 24.2362 15.1203C23.8199 14.7608 23.3043 14.5811 22.6894 14.5811C22.1312 14.5811 21.6535 14.7608 21.2561 15.1203C20.8588 15.4703 20.6223 15.9481 20.5466 16.5536H24.8747Z" fill="#076974"/>
<path id="Vector_9" d="M18.114 13.3464V21.1655H16.4963V20.2431C16.2408 20.5648 15.905 20.8202 15.4887 21.0094C15.0819 21.1891 14.6468 21.279 14.1832 21.279C13.5683 21.279 13.0148 21.1513 12.5229 20.8959C12.0404 20.6404 11.6573 20.262 11.3734 19.7606C11.0991 19.2592 10.9619 18.6537 10.9619 17.9442V13.3464H12.5655V17.703C12.5655 18.403 12.7405 18.9423 13.0905 19.3207C13.4406 19.6897 13.9183 19.8741 14.5238 19.8741C15.1292 19.8741 15.607 19.6897 15.957 19.3207C16.3165 18.9423 16.4963 18.403 16.4963 17.703V13.3464H18.114Z" fill="#076974"/>
<path id="Vector_10" d="M8.04678 14.1411C7.79134 13.6492 7.43658 13.2802 6.98248 13.0343C6.52838 12.7788 6.00332 12.6511 5.40731 12.6511C4.75454 12.6511 4.17273 12.7978 3.66186 13.091C3.151 13.3843 2.74893 13.8006 2.45566 14.3398C2.17184 14.8791 2.02994 15.5034 2.02994 16.213C2.02994 16.9225 2.17184 17.5516 2.45566 18.1003C2.74893 18.6396 3.151 19.0558 3.66186 19.3491C4.17273 19.6424 4.75454 19.789 5.40731 19.789C6.28713 19.789 7.0014 19.5431 7.5501 19.0511C8.09881 18.5592 8.43465 17.8922 8.55764 17.0502H4.85388V15.7589H10.2889V17.0218C10.1848 17.7881 9.91048 18.4929 9.46584 19.1363C9.03066 19.7796 8.4583 20.2952 7.74877 20.683C7.0487 21.0615 6.26821 21.2507 5.40731 21.2507C4.48019 21.2507 3.63348 21.0378 2.86719 20.6121C2.10089 20.1769 1.49069 19.5762 1.03659 18.8099C0.591949 18.0436 0.369629 17.1779 0.369629 16.213C0.369629 15.248 0.591949 14.3824 1.03659 13.6161C1.49069 12.8498 2.10089 12.2538 2.86719 11.8281C3.64294 11.3929 4.48965 11.1753 5.40731 11.1753C6.45742 11.1753 7.38928 11.4355 8.20287 11.9558C9.02593 12.4666 9.62194 13.1951 9.9909 14.1411H8.04678Z" fill="#076974"/>
</g>
</g>
</svg>
