<svg width="100" height="25" viewBox="0 0 100 25" fill="none" xmlns="http://www.w3.org/2000/svg">
<g id="Layer_1" clip-path="url(#clip0_8_299)">
<g id="Group">
<path id="Vector" d="M5.94516 12.562C8.65683 12.562 10.0169 10.9555 10.3026 10.5743L9.01723 9.61327C8.2872 10.6187 7.23647 11.1502 5.97683 11.1502C4.71718 11.1502 3.57522 10.6854 2.77619 9.80257C2.02938 8.97984 1.61793 7.85014 1.61793 6.62438C1.61793 3.88632 3.45186 1.90078 5.97683 1.90078C7.07482 1.90078 8.14942 2.40151 8.78799 3.21062L10.0547 2.25026C9.19921 1.14592 7.6959 0.48877 6.02527 0.48877C2.47817 0.488535 0 3.01122 0 6.62414C0 9.4801 2.27351 12.562 5.94516 12.562Z" fill="white"/>
<path id="Vector_2" d="M18.7343 4.59595H17.2024L15.004 10.6285H14.9324L14.9256 10.6115L12.6195 4.59595H10.9741L14.1944 12.346L14.1913 12.3566L13.7149 13.5774C13.4237 14.333 13.1441 14.8685 12.1799 14.8685C11.8991 14.8685 11.5943 14.8079 11.3168 14.7008L11.1443 15.981C11.4948 16.1144 11.9145 16.1811 12.4261 16.1811C14.0538 16.1811 14.5434 15.2569 15.0567 13.9506L18.7345 4.59595H18.7343Z" fill="white"/>
<path id="Vector_3" d="M21.6041 11.1735C22.1467 11.9596 23.1996 12.4652 24.2869 12.4652C26.599 12.4652 28.2121 10.8068 28.2121 8.43282C28.2121 6.05881 26.5987 4.40137 24.2869 4.40137C23.1733 4.40137 22.1193 4.90844 21.6041 5.69242L21.5953 5.70628H21.5192V0H20.0991V12.2691H21.5192V11.1612H21.5953L21.6041 11.1735ZM24.1068 5.71591C25.6541 5.71591 26.693 6.80803 26.693 8.43306C26.693 10.0581 25.6541 11.1502 24.1068 11.1502C22.5596 11.1502 21.5195 10.0586 21.5195 8.43306C21.5195 6.80756 22.5584 5.71591 24.1068 5.71591Z" fill="white"/>
<path id="Vector_4" d="M35.9748 10.1025C35.3254 10.8843 34.6467 11.2488 33.8365 11.2488C32.5327 11.2488 31.1835 10.396 31.1835 8.96972V8.94271H37.4184V8.44831C37.4184 6.58325 36.4321 4.40112 33.656 4.40112C31.3437 4.40112 29.6646 6.09661 29.6646 8.43258C29.6646 10.7685 31.299 12.465 33.6408 12.465C35.1148 12.465 36.2298 11.9593 37.0457 10.9153L35.9748 10.1022V10.1025ZM31.1835 7.79797C31.1835 6.72018 32.1864 5.51955 33.6236 5.51955C35.0607 5.51955 35.8623 6.37164 35.8997 7.79797V7.82475H31.1832V7.79797H31.1835Z" fill="white"/>
<path id="Vector_5" d="M42.9272 5.91107C43.1215 5.91107 43.3439 5.94465 43.6211 6.01746L43.6856 4.49108C43.4994 4.43166 43.2834 4.40112 43.0572 4.40112C42.0894 4.40112 41.1205 4.97772 40.7542 5.77062L40.7466 5.78706H40.6674V4.59583H39.2471V12.2691H40.6674V8.41684C40.6674 6.75541 41.4279 5.91107 42.9272 5.91107Z" fill="white"/>
<path id="Vector_6" d="M45.6953 0.781982V12.269H52.5461V10.8572H47.214V0.781982H45.6953Z" fill="white"/>
<path id="Vector_7" d="M57.5623 4.40112C55.2602 4.40112 53.4561 6.17247 53.4561 8.43258C53.4561 10.6927 55.2602 12.465 57.5623 12.465C59.8644 12.465 61.6676 10.6929 61.6676 8.43258C61.6676 6.17224 59.863 4.40112 57.5623 4.40112ZM57.5623 11.15C56.0141 11.15 54.975 10.0583 54.975 8.43281C54.975 6.80731 56.0139 5.71566 57.5623 5.71566C59.1108 5.71566 60.1485 6.80778 60.1485 8.43281C60.1485 10.0578 59.1103 11.15 57.5623 11.15Z" fill="white"/>
<path id="Vector_8" d="M71.3158 4.59584H69.895V5.70628H69.8201L69.8106 5.69359C69.2692 4.90844 68.2156 4.40137 67.1273 4.40137C64.8167 4.40137 63.2028 6.05975 63.2028 8.43282C63.1938 9.51931 63.5908 10.5177 64.3159 11.2446C65.0396 11.968 66.0376 12.3685 67.1273 12.3685C68.2884 12.3685 69.2838 11.8611 69.7936 11.0105L69.8026 10.9975H69.8952V12.1651C69.8952 13.175 69.528 14.8681 67.0621 14.8681C65.9823 14.8681 65.1017 14.4735 64.2916 13.6266L63.3257 14.8202C64.3454 15.7491 65.5444 16.1808 67.094 16.1808C69.5809 16.1808 71.3163 14.5572 71.3163 12.232V4.59584H71.3158ZM67.3076 11.0537C65.7363 11.0537 64.721 10.0247 64.721 8.43282C64.721 6.84091 65.7613 5.71567 67.3076 5.71567C68.8539 5.71567 69.895 6.80779 69.895 8.43282C69.895 10.0579 68.8804 11.0537 67.3076 11.0537Z" fill="white"/>
<g id="Group_2">
<path id="Vector_9" d="M75.1401 4.59595H73.7192V12.2692H75.1401V4.59595Z" fill="white"/>
<path id="Vector_10" d="M74.4293 0.749023C73.8571 0.749023 73.375 1.22956 73.375 1.79863C73.375 2.36771 73.8571 2.84754 74.4293 2.84754C75.0014 2.84754 75.4843 2.36724 75.4843 1.79863C75.4843 1.23003 75.0007 0.749023 74.4293 0.749023Z" fill="white"/>
</g>
<path id="Vector_11" d="M80.3999 12.4652C80.6788 12.4652 81.355 12.4039 81.7014 12.216V10.943C81.3911 11.1131 80.9775 11.1499 80.6798 11.1499C79.538 11.1499 79.538 10.1924 79.538 9.3464V5.81357H81.6532V4.59579H79.538V2.42822H78.116V4.59579H76.4111V5.81357H78.116V9.8671C78.116 11.0851 78.116 12.4652 80.3999 12.4652Z" fill="white"/>
<path id="Vector_12" d="M89.4622 10.1025C88.8144 10.8843 88.1359 11.2488 87.3246 11.2488C86.0212 11.2488 84.6722 10.396 84.6722 8.96972V8.94271H90.9059V8.44831C90.9059 6.58325 89.9202 4.40112 87.144 4.40112C84.8313 4.40112 83.1528 6.09661 83.1528 8.43258C83.1528 10.7685 84.7882 12.465 87.1286 12.465C88.6031 12.465 89.7174 11.9593 90.5344 10.9153L89.4624 10.1022L89.4622 10.1025ZM84.672 7.79797C84.672 6.72018 85.6733 5.51955 87.1126 5.51955C88.5518 5.51955 89.3506 6.37164 89.3858 7.79797L89.3877 7.82475H84.6717V7.79797H84.672Z" fill="white"/>
<path id="Vector_13" d="M92.3579 8.4656C92.3579 10.8194 94.02 12.4651 96.3975 12.4651C97.621 12.4651 98.6006 12.0743 99.3124 11.303L98.3021 10.2997C97.7869 10.8871 97.2027 11.1499 96.4143 11.1499C94.9446 11.1499 93.8782 10.034 93.8782 8.49872C93.8782 7.12006 94.6366 5.73107 96.3335 5.73107C97.1146 5.73107 97.6957 5.98778 98.269 6.58457L99.3446 5.61011C98.6188 4.84046 97.5737 4.41724 96.3975 4.41724C94.02 4.41724 92.3579 6.08196 92.3579 8.4656Z" fill="white"/>
</g>
<g id="Group_3">
<path id="Vector_14" d="M50.1477 20.0803H50.7943L52.0062 23.4154H52.0178L53.2763 20.0803H53.8879L52.2624 24.1797H51.738L50.1475 20.0803H50.1477Z" fill="white"/>
<path id="Vector_15" d="M56.7397 20.0801H57.2991V24.1794H56.7397V20.0801Z" fill="white"/>
<path id="Vector_16" d="M60.6572 20.0801H63.3197V20.6012H61.2166V21.823H63.1742V22.3442H61.2166V23.6585H63.4247V24.1796H60.6572V20.0803V20.0801Z" fill="white"/>
<path id="Vector_17" d="M67.0823 20.601H65.7539V20.0798H68.9699V20.601H67.6415V24.1792H67.0821V20.601H67.0823Z" fill="white"/>
<path id="Vector_18" d="M71.8264 20.0801H72.5605L74.8325 23.4499H74.8441V20.0801H75.4035V24.1794H74.6926L72.3972 20.8096H72.3856V24.1794H71.8262V20.0801H71.8264Z" fill="white"/>
<path id="Vector_19" d="M79.5598 20.0801H80.0667L81.8321 24.1794H81.1796L80.766 23.1662H78.8026L78.3947 24.1794H77.7422L79.56 20.0801H79.5598ZM80.5619 22.6798L79.7928 20.7981H79.7813L79.0007 22.6798H80.5621H80.5619Z" fill="white"/>
<path id="Vector_20" d="M84.0901 20.0801H84.9231L86.2341 23.1836H86.2575L87.5566 20.0801H88.3897V24.1794H87.8303V20.8096H87.8187L86.4262 24.1794H86.0533L84.6608 20.8096H84.6492V24.1794H84.0898V20.0801H84.0901Z" fill="white"/>
</g>
</g>
<defs>
<clipPath id="clip0_8_299">
<rect width="99.3446" height="24.1791" fill="white"/>
</clipPath>
</defs>
</svg>
