<svg width="140" height="34" viewBox="0 0 140 34" fill="none"
    xmlns="http://www.w3.org/2000/svg">
    <g id="Layer_1" clip-path="url(#clip0_7_92)">
        <g id="Group">
            <path id="Vector" d="M8.32639 17.5935C12.1242 17.5935 14.029 15.3436 14.4292 14.8097L12.6289 13.4637C11.6065 14.8719 10.1349 15.6163 8.37074 15.6163C6.60656 15.6163 5.00722 14.9653 3.88814 13.7289C2.84221 12.5766 2.26596 10.9944 2.26596 9.27769C2.26596 5.44296 4.83444 2.66213 8.37074 2.66213C9.90852 2.66213 11.4135 3.36342 12.3079 4.49661L14.082 3.15159C12.8838 1.60493 10.7784 0.68457 8.43859 0.68457C3.47076 0.684241 0 4.21734 0 9.27736C0 13.2772 3.18412 17.5935 8.32639 17.5935Z" fill="#12093C"/>
            <path id="Vector_2" d="M26.238 6.43665H24.0925L21.0137 14.8854H20.9134L20.9038 14.8617L17.674 6.43665H15.3696L19.8797 17.2909L19.8754 17.3057L19.2081 19.0155C18.8003 20.0737 18.4088 20.8236 17.0583 20.8236C16.6651 20.8236 16.2381 20.7388 15.8496 20.5888L15.6079 22.3818C16.0988 22.5686 16.6866 22.6621 17.4032 22.6621C19.6828 22.6621 20.3686 21.3677 21.0875 19.5382L26.2384 6.43665H26.238Z" fill="#12093C"/>
            <path id="Vector_3" d="M30.2576 15.6488C31.0176 16.7497 32.4922 17.4579 34.015 17.4579C37.2531 17.4579 39.5125 15.1353 39.5125 11.8104C39.5125 8.48556 37.2528 6.16426 34.015 6.16426C32.4554 6.16426 30.9792 6.87443 30.2576 7.97242L30.2454 7.99183H30.1388V0H28.1499V17.1833H30.1388V15.6317H30.2454L30.2576 15.6488ZM33.7628 8.00531C35.9298 8.00531 37.3849 9.53487 37.3849 11.8108C37.3849 14.0867 35.9298 15.6162 33.7628 15.6162C31.5958 15.6162 30.1392 14.0873 30.1392 11.8108C30.1392 9.53421 31.5942 8.00531 33.7628 8.00531Z" fill="#12093C"/>
            <path id="Vector_4" d="M50.3837 14.1489C49.4741 15.2439 48.5235 15.7544 47.3889 15.7544C45.5628 15.7544 43.6732 14.56 43.6732 12.5624V12.5246H52.4054V11.8322C52.4054 9.22008 51.0241 6.16394 47.136 6.16394C43.8976 6.16394 41.5459 8.53853 41.5459 11.8101C41.5459 15.0817 43.835 17.4576 47.1148 17.4576C49.1792 17.4576 50.7408 16.7494 51.8834 15.2873L50.3837 14.1485V14.1489ZM43.6732 10.9213C43.6732 9.41185 45.0779 7.73033 47.0906 7.73033C49.1034 7.73033 50.2261 8.92371 50.2784 10.9213V10.9588H43.6728V10.9213H43.6732Z" fill="#12093C"/>
            <path id="Vector_5" d="M60.1205 8.27867C60.3926 8.27867 60.704 8.32571 61.0923 8.42768L61.1826 6.28992C60.9218 6.2067 60.6193 6.16394 60.3025 6.16394C58.9471 6.16394 57.5901 6.97148 57.077 8.08197L57.0664 8.10499H56.9556V6.43663H54.9663V17.1833H56.9556V11.7881C56.9556 9.46119 58.0207 8.27867 60.1205 8.27867Z" fill="#12093C"/>
            <path id="Vector_6" d="M63.9976 1.09534V17.1833H73.5923V15.206H66.1245V1.09534H63.9976Z" fill="#12093C"/>
            <path id="Vector_7" d="M80.6181 6.16394C77.394 6.16394 74.8672 8.64478 74.8672 11.8101C74.8672 14.9755 77.394 17.4576 80.6181 17.4576C83.8423 17.4576 86.3678 14.9758 86.3678 11.8101C86.3678 8.64445 83.8403 6.16394 80.6181 6.16394ZM80.6181 15.6159C78.4498 15.6159 76.9945 14.087 76.9945 11.8105C76.9945 9.53389 78.4495 8.00499 80.6181 8.00499C82.7868 8.00499 84.2402 9.53455 84.2402 11.8105C84.2402 14.0864 82.7861 15.6159 80.6181 15.6159Z" fill="#12093C"/>
            <path id="Vector_8" d="M99.8803 6.43667H97.8904V7.99188H97.7855L97.7723 7.97411C97.014 6.87448 95.5384 6.16431 94.0142 6.16431C90.7781 6.16431 88.5178 8.48692 88.5178 11.8105C88.5052 13.3321 89.0613 14.7305 90.0767 15.7485C91.0902 16.7616 92.488 17.3225 94.0142 17.3225C95.6404 17.3225 97.0345 16.612 97.7484 15.4206L97.761 15.4025H97.8908V17.0376C97.8908 18.452 97.3764 20.8233 93.9228 20.8233C92.4106 20.8233 91.1773 20.2707 90.0427 19.0846L88.6899 20.7562C90.1181 22.0572 91.7972 22.6618 93.9675 22.6618C97.4505 22.6618 99.881 20.3878 99.881 17.1314V6.43667H99.8803ZM94.2668 15.4811C92.066 15.4811 90.6441 14.04 90.6441 11.8105C90.6441 9.58096 92.1011 8.00503 94.2668 8.00503C96.4324 8.00503 97.8904 9.53458 97.8904 11.8105C97.8904 14.0864 96.4695 15.4811 94.2668 15.4811Z" fill="#12093C"/>
            <g id="Group_2">
                <path id="Vector_9" d="M105.236 6.43665H103.246V17.1833H105.236V6.43665Z" fill="#12093C"/>
                <path id="Vector_10" d="M104.241 1.04895C103.439 1.04895 102.764 1.72195 102.764 2.51897C102.764 3.31598 103.439 3.98799 104.241 3.98799C105.042 3.98799 105.718 3.31532 105.718 2.51897C105.718 1.72261 105.041 1.04895 104.241 1.04895Z" fill="#12093C"/>
            </g>
            <path id="Vector_11" d="M112.603 17.458C112.993 17.458 113.94 17.3721 114.425 17.109V15.3261C113.991 15.5643 113.412 15.6159 112.994 15.6159C111.395 15.6159 111.395 14.2748 111.395 13.09V8.14216H114.358V6.43663H111.395V3.40088H109.404V6.43663H107.016V8.14216H109.404V13.8193C109.404 15.5251 109.404 17.458 112.603 17.458Z" fill="#12093C"/>
            <path id="Vector_12" d="M125.295 14.1489C124.388 15.2439 123.437 15.7544 122.301 15.7544C120.476 15.7544 118.586 14.56 118.586 12.5624V12.5246H127.317V11.8322C127.317 9.22008 125.936 6.16394 122.048 6.16394C118.809 6.16394 116.458 8.53853 116.458 11.8101C116.458 15.0817 118.749 17.4576 122.027 17.4576C124.092 17.4576 125.652 16.7494 126.797 15.2873L125.295 14.1485L125.295 14.1489ZM118.586 10.9213C118.586 9.41185 119.989 7.73033 122.004 7.73033C124.02 7.73033 125.139 8.92371 125.188 10.9213L125.191 10.9588H118.586V10.9213H118.586Z" fill="#12093C"/>
            <path id="Vector_13" d="M129.35 11.8565C129.35 15.1531 131.678 17.458 135.008 17.458C136.721 17.458 138.093 16.9106 139.09 15.8304L137.675 14.4252C136.954 15.2478 136.135 15.6159 135.031 15.6159C132.973 15.6159 131.479 14.0531 131.479 11.9029C131.479 9.97204 132.542 8.02671 134.918 8.02671C136.012 8.02671 136.826 8.38624 137.629 9.22207L139.135 7.85731C138.119 6.77939 136.655 6.18665 135.008 6.18665C131.678 6.18665 129.35 8.51814 129.35 11.8565Z" fill="#12093C"/>
        </g>
        <g id="Group_3">
            <path id="Vector_14" d="M70.2337 28.1228H71.1393L72.8366 32.7937H72.8529L74.6154 28.1228H75.472L73.1954 33.864H72.461L70.2334 28.1228H70.2337Z" fill="#12093C"/>
            <path id="Vector_15" d="M79.4663 28.1227H80.2498V33.8639H79.4663V28.1227Z" fill="#12093C"/>
            <path id="Vector_16" d="M84.9526 28.1227H88.6816V28.8526H85.7361V30.5637H88.4777V31.2936H85.7361V33.1343H88.8285V33.8643H84.9526V28.123V28.1227Z" fill="#12093C"/>
            <path id="Vector_17" d="M93.9513 28.8522H92.0908V28.1223H96.5949V28.8522H94.7344V33.8636H93.951V28.8522H93.9513Z" fill="#12093C"/>
            <path id="Vector_18" d="M100.595 28.1227H101.623L104.805 32.8423H104.821V28.1227H105.605V33.8639H104.609L101.394 29.1444H101.378V33.8639H100.595V28.1227H100.595Z" fill="#12093C"/>
            <path id="Vector_19" d="M111.427 28.1227H112.136L114.609 33.8639H113.695L113.116 32.4449H110.366L109.795 33.8639H108.881L111.427 28.1227H111.427ZM112.83 31.7637L111.753 29.1282H111.737L110.643 31.7637H112.83H112.83Z" fill="#12093C"/>
            <path id="Vector_20" d="M117.771 28.1227H118.938L120.774 32.4692H120.806L122.626 28.1227H123.793V33.8639H123.009V29.1444H122.993L121.043 33.8639H120.52L118.57 29.1444H118.554V33.8639H117.771V28.1227H117.771Z" fill="#12093C"/>
        </g>
    </g>
    <defs>
        <clipPath id="clip0_7_92">
            <rect width="139.135" height="33.8636" fill="white"/>
        </clipPath>
    </defs>
</svg>
